<?xml version="1.0" encoding="UTF-8" ?>
<!DOCTYPE svg PUBLIC "-//W3C//DTD SVG 1.1//EN" "http://www.w3.org/Graphics/SVG/1.1/DTD/svg11.dtd">
<svg width="1825pt" height="400pt" viewBox="0 0 1825 400" version="1.1" xmlns="http://www.w3.org/2000/svg">
<g id="#ffffffff">
</g>
<g id="#6ac6d2ff">
<path fill="#6ac6d2" opacity="1.00" d=" M 1284.05 66.02 C 1296.41 65.93 1308.77 65.92 1321.14 66.03 C 1321.47 74.02 1321.24 82.01 1321.30 90.00 C 1321.30 147.67 1321.30 205.33 1321.30 263.00 C 1321.25 270.65 1321.46 278.31 1321.14 285.96 C 1308.77 286.04 1296.41 286.04 1284.05 285.96 C 1283.99 212.65 1283.99 139.33 1284.05 66.02 Z" />
<path fill="#6ac6d2" opacity="1.00" d=" M 823.41 81.36 C 828.49 77.47 835.68 77.17 841.50 79.48 C 845.60 81.06 848.61 84.48 850.80 88.19 C 875.59 131.38 900.47 174.52 925.29 217.70 C 928.47 223.11 931.43 228.64 934.77 233.96 C 936.85 230.60 938.84 227.18 940.79 223.73 C 965.14 181.43 989.46 139.11 1013.82 96.81 C 1016.40 92.45 1018.53 87.75 1021.90 83.91 C 1027.94 77.10 1039.28 75.92 1046.55 81.43 C 1051.83 85.13 1054.53 91.62 1054.36 97.97 C 1054.31 154.31 1054.36 210.66 1054.34 267.00 C 1054.34 273.32 1054.45 279.63 1054.17 285.95 C 1041.78 286.05 1029.38 286.03 1016.99 285.96 C 1016.80 252.97 1016.97 219.98 1016.91 187.00 C 1016.85 179.59 1017.08 172.17 1016.74 164.76 C 1014.53 167.95 1012.56 171.29 1010.71 174.70 C 992.14 207.46 973.46 240.16 954.90 272.93 C 952.73 276.67 950.92 280.73 947.85 283.84 C 941.57 290.04 930.75 290.58 923.75 285.30 C 921.62 283.73 920.05 281.55 918.70 279.31 C 899.01 244.70 879.20 210.15 859.47 175.55 C 857.46 171.91 855.40 168.29 853.06 164.86 C 852.68 169.90 852.68 174.95 852.74 180.00 C 852.80 215.30 852.68 250.60 852.80 285.90 C 840.48 286.09 828.15 286.02 815.83 285.95 C 815.55 279.97 815.63 273.98 815.66 268.00 C 815.66 214.66 815.66 161.33 815.66 108.00 C 815.70 103.00 815.33 97.97 816.00 93.00 C 816.63 88.27 819.70 84.21 823.41 81.36 Z" />
<path fill="#6ac6d2" opacity="1.00" d=" M 1119.26 131.27 C 1141.50 131.40 1163.75 131.29 1186.00 131.34 C 1194.45 131.39 1202.99 130.85 1211.34 132.54 C 1222.88 134.58 1233.75 140.72 1241.12 149.88 C 1245.40 155.42 1248.98 161.64 1250.60 168.50 C 1252.23 174.86 1252.10 181.48 1252.10 188.00 C 1252.05 203.67 1252.13 219.34 1252.07 235.01 C 1252.07 244.38 1249.53 253.73 1244.82 261.83 C 1238.70 272.32 1228.59 280.49 1216.92 283.95 C 1211.46 285.69 1205.68 286.02 1200.00 286.01 C 1178.99 286.00 1157.98 285.99 1136.98 286.02 C 1128.12 286.00 1119.08 284.83 1111.04 280.93 C 1099.32 275.70 1090.05 265.55 1085.51 253.60 C 1080.36 237.95 1082.01 219.95 1090.89 205.94 C 1098.28 194.15 1111.04 185.82 1124.85 183.91 C 1131.18 182.96 1137.61 183.40 1144.00 183.35 C 1162.94 183.29 1181.88 183.45 1200.81 183.25 C 1201.07 195.13 1200.93 207.02 1200.91 218.90 C 1178.92 218.98 1156.93 218.94 1134.95 218.91 C 1131.79 218.99 1128.46 219.11 1125.66 220.73 C 1116.65 225.73 1114.97 240.35 1123.21 246.82 C 1126.68 249.93 1131.52 250.45 1136.00 250.41 C 1154.00 250.30 1172.00 250.38 1190.00 250.36 C 1194.96 250.30 1199.97 250.72 1204.91 250.03 C 1209.69 249.40 1213.75 245.79 1215.44 241.35 C 1216.70 238.07 1216.72 234.50 1216.75 231.05 C 1216.65 218.37 1216.71 205.68 1216.69 193.00 C 1216.64 188.42 1217.01 183.81 1216.48 179.24 C 1215.82 173.82 1211.61 169.17 1206.45 167.58 C 1203.38 166.66 1200.15 166.65 1197.00 166.62 C 1171.08 166.77 1145.17 166.57 1119.25 166.73 C 1119.23 154.91 1119.23 143.09 1119.26 131.27 Z" />
<path fill="#6ac6d2" opacity="1.00" d=" M 1405.50 131.58 C 1407.56 130.87 1409.79 131.01 1411.96 130.95 C 1429.64 131.21 1447.32 130.86 1464.99 131.14 C 1439.82 151.60 1414.47 171.86 1389.23 192.24 C 1385.60 195.27 1381.60 197.88 1378.29 201.27 C 1378.72 202.51 1379.61 203.50 1380.52 204.44 C 1408.72 231.54 1436.85 258.71 1465.01 285.86 C 1449.33 286.23 1433.65 285.82 1417.97 286.08 C 1414.90 286.05 1411.34 286.37 1409.12 283.82 C 1387.05 262.25 1364.70 240.94 1342.57 219.42 C 1339.70 216.62 1336.56 214.06 1334.10 210.88 C 1329.40 204.94 1329.66 195.97 1333.89 189.86 C 1336.89 185.86 1341.17 183.13 1344.98 179.97 C 1362.84 165.49 1380.80 151.14 1398.65 136.64 C 1400.85 134.87 1402.91 132.82 1405.50 131.58 Z" />
<path fill="#6ac6d2" opacity="1.00" d=" M 1510.42 134.39 C 1517.56 131.58 1525.37 131.35 1532.96 131.32 C 1553.64 131.36 1574.33 131.31 1595.02 131.34 C 1605.37 131.34 1615.87 133.74 1624.72 139.24 C 1638.04 147.37 1647.15 162.25 1647.76 177.91 C 1648.68 193.06 1643.70 208.97 1632.74 219.74 C 1625.48 226.78 1616.09 231.95 1605.96 233.11 C 1601.66 233.66 1597.33 233.72 1593.02 233.74 C 1571.97 233.73 1550.92 233.70 1529.87 233.77 C 1529.38 226.19 1529.77 218.59 1529.62 211.00 C 1529.53 206.75 1529.63 202.51 1529.95 198.27 C 1551.29 198.46 1572.64 198.24 1593.99 198.41 C 1598.28 198.39 1603.01 198.27 1606.54 195.47 C 1611.98 191.31 1613.42 183.60 1611.81 177.23 C 1610.40 171.77 1605.23 167.92 1599.81 167.08 C 1594.90 166.33 1589.93 166.70 1585.00 166.66 C 1567.66 166.67 1550.33 166.72 1533.00 166.62 C 1529.10 166.70 1524.98 166.64 1521.43 168.47 C 1517.25 170.79 1514.38 175.27 1513.91 180.01 C 1513.38 184.66 1513.68 189.34 1513.66 194.00 C 1513.66 206.66 1513.69 219.33 1513.61 232.00 C 1513.66 236.05 1513.72 240.44 1516.14 243.90 C 1519.37 248.67 1525.34 250.84 1530.94 250.70 C 1545.62 250.62 1560.31 250.65 1575.00 250.65 C 1582.24 250.73 1589.50 250.37 1596.74 250.92 C 1596.64 262.56 1596.60 274.21 1596.75 285.85 C 1578.84 286.21 1560.91 285.90 1543.00 286.00 C 1535.81 285.88 1528.57 286.44 1521.44 285.36 C 1511.50 283.64 1501.76 279.64 1494.28 272.75 C 1486.61 265.68 1480.96 256.21 1479.14 245.88 C 1478.04 239.98 1478.31 233.96 1478.32 227.99 C 1478.36 212.99 1478.30 197.98 1478.33 182.98 C 1478.35 173.41 1480.87 163.88 1485.56 155.54 C 1491.07 145.89 1500.11 138.45 1510.42 134.39 Z" />
<path fill="#6ac6d2" opacity="1.00" d=" M 1710.85 132.94 C 1719.40 130.84 1728.27 131.38 1737.00 131.33 C 1760.58 131.30 1784.16 131.41 1807.74 131.27 C 1807.76 143.76 1807.76 156.25 1807.75 168.74 C 1780.84 168.52 1753.92 168.77 1727.01 168.60 C 1724.06 168.63 1721.09 168.63 1718.23 169.31 C 1714.41 170.22 1711.10 173.16 1709.90 176.92 C 1708.74 180.49 1708.77 184.29 1708.72 188.01 C 1708.83 220.64 1708.66 253.27 1708.80 285.90 C 1696.48 286.09 1684.15 286.02 1671.83 285.94 C 1671.49 278.63 1671.68 271.31 1671.66 264.00 C 1671.65 237.00 1671.67 210.01 1671.64 183.01 C 1671.66 171.19 1675.10 159.02 1682.83 149.89 C 1689.95 141.32 1700.11 135.61 1710.85 132.94 Z" />
</g>
<g id="#fc9200ff">
<path fill="#fc9200" opacity="1.00" d=" M 161.82 80.92 C 174.23 80.70 186.66 80.73 199.08 80.91 C 199.33 128.61 199.10 176.30 199.19 224.00 C 199.14 233.17 199.60 242.64 196.39 251.40 C 192.19 264.64 182.11 275.92 169.34 281.40 C 164.46 283.52 159.32 285.17 154.00 285.64 C 149.01 286.09 144.00 285.98 139.00 286.01 C 96.28 285.96 53.55 286.06 10.83 285.96 C 10.58 273.60 10.57 261.23 10.84 248.87 C 16.22 248.69 21.61 248.70 27.00 248.74 C 64.00 248.76 101.00 248.71 138.00 248.76 C 142.63 248.71 147.32 249.03 151.89 248.06 C 155.81 247.27 159.19 244.30 160.49 240.51 C 161.54 237.47 161.63 234.20 161.69 231.01 C 161.62 183.68 161.71 136.34 161.64 89.00 C 161.65 86.30 161.73 83.61 161.82 80.92 Z" />
<path fill="#fc9200" opacity="1.00" d=" M 263.25 131.27 C 290.17 131.41 317.09 131.30 344.02 131.33 C 358.29 131.47 372.93 136.61 382.80 147.21 C 389.36 154.43 394.36 163.44 395.53 173.23 C 396.18 178.46 396.08 183.74 396.09 189.00 C 396.04 204.34 396.13 219.68 396.06 235.01 C 396.02 248.88 390.53 262.81 380.49 272.47 C 373.98 278.59 365.86 283.06 357.10 284.93 C 352.14 285.99 347.04 285.99 341.99 286.01 C 323.33 285.99 304.67 285.99 286.00 286.01 C 280.20 285.99 274.34 286.20 268.60 285.19 C 257.80 283.23 247.41 278.19 239.88 270.11 C 233.86 263.53 229.10 255.50 227.58 246.62 C 224.88 231.85 227.64 215.85 236.51 203.55 C 241.78 196.09 249.37 190.40 257.74 186.84 C 266.35 183.26 275.84 183.24 285.01 183.35 C 304.94 183.33 324.88 183.46 344.82 183.27 C 345.06 195.14 344.93 207.02 344.90 218.90 C 322.92 218.99 300.93 218.93 278.95 218.91 C 275.11 218.94 270.95 219.31 267.89 221.89 C 262.03 226.41 260.54 235.04 263.24 241.70 C 265.29 246.64 270.43 249.67 275.58 250.35 C 280.03 250.90 284.53 250.59 289.00 250.62 C 304.33 250.61 319.66 250.61 334.99 250.63 C 339.45 250.59 343.96 250.95 348.39 250.26 C 352.54 249.60 356.41 247.10 358.48 243.40 C 360.69 239.69 360.76 235.24 360.77 231.05 C 360.67 215.35 360.73 199.66 360.75 183.97 C 360.76 179.49 360.00 174.60 356.62 171.36 C 353.17 167.62 347.91 166.55 343.02 166.64 C 316.43 166.75 289.84 166.58 263.25 166.74 C 263.25 154.91 263.25 143.09 263.25 131.27 Z" />
<path fill="#fc9200" opacity="1.00" d=" M 427.29 131.29 C 439.77 131.35 452.24 131.37 464.72 131.28 C 464.60 161.19 464.69 191.09 464.66 221.00 C 464.73 229.79 464.50 238.58 464.81 247.37 C 476.77 247.87 488.43 243.64 498.60 237.61 C 511.35 230.19 522.20 219.89 531.63 208.62 C 546.20 190.85 557.88 170.76 566.44 149.44 C 568.83 143.55 570.75 137.48 572.40 131.35 C 585.57 131.29 598.74 131.38 611.92 131.30 C 604.42 155.14 594.48 178.27 581.81 199.82 C 569.48 220.08 554.77 239.25 536.22 254.22 C 512.75 273.19 483.30 285.27 452.98 286.17 C 447.84 286.36 442.36 286.76 437.64 284.31 C 431.52 281.27 427.29 274.75 427.40 267.85 C 427.27 222.33 427.50 176.81 427.29 131.29 Z" />
<path fill="#fc9200" opacity="1.00" d=" M 647.25 131.27 C 674.17 131.42 701.09 131.30 728.02 131.33 C 738.74 131.61 749.68 134.28 758.64 140.36 C 767.15 145.87 773.44 154.38 777.17 163.73 C 779.84 170.48 780.10 177.84 780.10 185.01 C 780.05 201.68 780.12 218.34 780.07 235.01 C 779.91 251.20 772.50 267.69 758.96 276.98 C 750.66 283.12 740.30 286.09 730.03 285.98 C 707.68 286.03 685.34 285.98 662.99 286.00 C 649.04 286.18 634.79 281.09 624.86 271.15 C 618.15 264.18 612.89 255.45 611.43 245.78 C 608.94 231.01 611.91 215.10 620.93 202.97 C 626.33 195.59 634.00 189.99 642.44 186.56 C 652.15 182.75 662.77 183.35 673.00 183.36 C 691.60 183.31 710.21 183.47 728.82 183.27 C 729.06 195.14 728.93 207.02 728.90 218.90 C 706.92 218.98 684.93 218.93 662.95 218.91 C 658.89 218.89 654.50 219.46 651.40 222.34 C 646.08 226.75 644.77 234.66 646.96 240.99 C 648.80 246.30 654.17 249.66 659.57 250.35 C 664.36 250.93 669.19 250.57 674.00 250.62 C 691.35 250.64 708.70 250.55 726.05 250.68 C 729.43 250.65 732.94 250.57 736.08 249.15 C 739.46 247.69 742.18 244.80 743.45 241.33 C 744.68 238.05 744.72 234.50 744.76 231.05 C 744.69 216.01 744.70 200.98 744.76 185.95 C 744.71 182.75 744.69 179.49 743.72 176.42 C 742.53 172.65 739.47 169.68 735.91 168.10 C 732.80 166.74 729.34 166.68 726.01 166.63 C 699.75 166.76 673.50 166.58 647.24 166.73 C 647.25 154.91 647.25 143.09 647.25 131.27 Z" />
</g>
</svg>
