<?xml version="1.0" encoding="UTF-8" standalone="no"?>
<svg
   xmlns:dc="http://purl.org/dc/elements/1.1/"
   xmlns:cc="http://creativecommons.org/ns#"
   xmlns:rdf="http://www.w3.org/1999/02/22-rdf-syntax-ns#"
   xmlns:svg="http://www.w3.org/2000/svg"
   xmlns="http://www.w3.org/2000/svg"
   xmlns:sodipodi="http://sodipodi.sourceforge.net/DTD/sodipodi-0.dtd"
   xmlns:inkscape="http://www.inkscape.org/namespaces/inkscape"
   width="2246.1499"
   height="278.70001"
   viewBox="0 0 1796.9199 222.96"
   version="1.1"
   id="svg3016"
   inkscape:version="0.48.4 r9939"
   sodipodi:docname="JavaMaker.svg">
  <metadata
     id="metadata3045">
    <rdf:RDF>
      <cc:Work
         rdf:about="">
        <dc:format>image/svg+xml</dc:format>
        <dc:type
           rdf:resource="http://purl.org/dc/dcmitype/StillImage" />
        <dc:title></dc:title>
      </cc:Work>
    </rdf:RDF>
  </metadata>
  <defs
     id="defs3043" />
  <sodipodi:namedview
     pagecolor="#ffffff"
     bordercolor="#666666"
     borderopacity="1"
     objecttolerance="10"
     gridtolerance="10"
     guidetolerance="10"
     inkscape:pageopacity="0"
     inkscape:pageshadow="2"
     inkscape:window-width="944"
     inkscape:window-height="1001"
     id="namedview3041"
     showgrid="false"
     inkscape:zoom="256"
     inkscape:cx="0.2023775"
     inkscape:cy="4.4310789"
     inkscape:window-x="0"
     inkscape:window-y="0"
     inkscape:window-maximized="0"
     inkscape:current-layer="svg3016" />
  <g
     id="#ffffffff"
     transform="translate(0,-177.04006)" />
  <g
     id="#6ac6d2ff"
     transform="translate(-10.83549,-65.972383)">
    <path
       d="m 1284.05,66.02 c 12.36,-0.09 24.72,-0.1 37.09,0.01 0.33,7.99 0.1,15.98 0.16,23.97 0,57.67 0,115.33 0,173 -0.05,7.65 0.16,15.31 -0.16,22.96 -12.37,0.08 -24.73,0.08 -37.09,0 -0.06,-73.31 -0.06,-146.63 0,-219.94 z"
       id="path3020"
       inkscape:connector-curvature="0"
       style="fill:#6ac6d2" />
    <path
       d="m 823.41,81.36 c 5.08,-3.89 12.27,-4.19 18.09,-1.88 4.1,1.58 7.11,5 9.3,8.71 24.79,43.19 49.67,86.33 74.49,129.51 3.18,5.41 6.14,10.94 9.48,16.26 2.08,-3.36 4.07,-6.78 6.02,-10.23 24.35,-42.3 48.67,-84.62 73.03,-126.92 2.58,-4.36 4.71,-9.06 8.08,-12.9 6.04,-6.81 17.38,-7.99 24.65,-2.48 5.28,3.7 7.98,10.19 7.81,16.54 -0.05,56.34 0,112.69 -0.02,169.03 0,6.32 0.11,12.63 -0.17,18.95 -12.39,0.1 -24.79,0.08 -37.18,0.01 -0.19,-32.99 -0.02,-65.98 -0.08,-98.96 -0.06,-7.41 0.17,-14.83 -0.17,-22.24 -2.21,3.19 -4.18,6.53 -6.03,9.94 -18.57,32.76 -37.25,65.46 -55.81,98.23 -2.17,3.74 -3.98,7.8 -7.05,10.91 -6.28,6.2 -17.1,6.74 -24.1,1.46 -2.13,-1.57 -3.7,-3.75 -5.05,-5.99 -19.69,-34.61 -39.5,-69.16 -59.23,-103.76 -2.01,-3.64 -4.07,-7.26 -6.41,-10.69 -0.38,5.04 -0.38,10.09 -0.32,15.14 0.06,35.3 -0.06,70.6 0.06,105.9 -12.32,0.19 -24.65,0.12 -36.97,0.05 -0.28,-5.98 -0.2,-11.97 -0.17,-17.95 0,-53.34 0,-106.67 0,-160 0.04,-5 -0.33,-10.03 0.34,-15 0.63,-4.73 3.7,-8.79 7.41,-11.64 z"
       id="path3022"
       inkscape:connector-curvature="0"
       style="fill:#6ac6d2" />
    <path
       d="m 1119.26,131.27 c 22.24,0.13 44.49,0.02 66.74,0.07 8.45,0.05 16.99,-0.49 25.34,1.2 11.54,2.04 22.41,8.18 29.78,17.34 4.28,5.54 7.86,11.76 9.48,18.62 1.63,6.36 1.5,12.98 1.5,19.5 -0.05,15.67 0.03,31.34 -0.03,47.01 0,9.37 -2.54,18.72 -7.25,26.82 -6.12,10.49 -16.23,18.66 -27.9,22.12 -5.46,1.74 -11.24,2.07 -16.92,2.06 -21.01,-0.01 -42.02,-0.02 -63.02,0.01 -8.86,-0.02 -17.9,-1.19 -25.94,-5.09 -11.72,-5.23 -20.99,-15.38 -25.53,-27.33 -5.15,-15.65 -3.5,-33.65 5.38,-47.66 7.39,-11.79 20.15,-20.12 33.96,-22.03 6.33,-0.95 12.76,-0.51 19.15,-0.56 18.94,-0.06 37.88,0.1 56.81,-0.1 0.26,11.88 0.12,23.77 0.1,35.65 -21.99,0.08 -43.98,0.04 -65.96,0.01 -3.16,0.08 -6.49,0.2 -9.29,1.82 -9.01,5 -10.69,19.62 -2.45,26.09 3.47,3.11 8.31,3.63 12.79,3.59 18,-0.11 36,-0.03 54,-0.05 4.96,-0.06 9.97,0.36 14.91,-0.33 4.78,-0.63 8.84,-4.24 10.53,-8.68 1.26,-3.28 1.28,-6.85 1.31,-10.3 -0.1,-12.68 -0.04,-25.37 -0.06,-38.05 -0.05,-4.58 0.32,-9.19 -0.21,-13.76 -0.66,-5.42 -4.87,-10.07 -10.03,-11.66 -3.07,-0.92 -6.3,-0.93 -9.45,-0.96 -25.92,0.15 -51.83,-0.05 -77.75,0.11 -0.02,-11.82 -0.02,-23.64 0.01,-35.46 z"
       id="path3024"
       inkscape:connector-curvature="0"
       style="fill:#6ac6d2" />
    <path
       d="m 1405.5,131.58 c 2.06,-0.71 4.29,-0.57 6.46,-0.63 17.68,0.26 35.36,-0.09 53.03,0.19 -25.17,20.46 -50.52,40.72 -75.76,61.1 -3.63,3.03 -7.63,5.64 -10.94,9.03 0.43,1.24 1.32,2.23 2.23,3.17 28.2,27.1 56.33,54.27 84.49,81.42 -15.68,0.37 -31.36,-0.04 -47.04,0.22 -3.07,-0.03 -6.63,0.29 -8.85,-2.26 -22.07,-21.57 -44.42,-42.88 -66.55,-64.4 -2.87,-2.8 -6.01,-5.36 -8.47,-8.54 -4.7,-5.94 -4.44,-14.91 -0.21,-21.02 3,-4 7.28,-6.73 11.09,-9.89 17.86,-14.48 35.82,-28.83 53.67,-43.33 2.2,-1.77 4.26,-3.82 6.85,-5.06 z"
       id="path3026"
       inkscape:connector-curvature="0"
       style="fill:#6ac6d2" />
    <path
       d="m 1510.42,134.39 c 7.14,-2.81 14.95,-3.04 22.54,-3.07 20.68,0.04 41.37,-0.01 62.06,0.02 10.35,0 20.85,2.4 29.7,7.9 13.32,8.13 22.43,23.01 23.04,38.67 0.92,15.15 -4.06,31.06 -15.02,41.83 -7.26,7.04 -16.65,12.21 -26.78,13.37 -4.3,0.55 -8.63,0.61 -12.94,0.63 -21.05,-0.01 -42.1,-0.04 -63.15,0.03 -0.49,-7.58 -0.1,-15.18 -0.25,-22.77 -0.09,-4.25 0.01,-8.49 0.33,-12.73 21.34,0.19 42.69,-0.03 64.04,0.14 4.29,-0.02 9.02,-0.14 12.55,-2.94 5.44,-4.16 6.88,-11.87 5.27,-18.24 -1.41,-5.46 -6.58,-9.31 -12,-10.15 -4.91,-0.75 -9.88,-0.38 -14.81,-0.42 -17.34,0.01 -34.67,0.06 -52,-0.04 -3.9,0.08 -8.02,0.02 -11.57,1.85 -4.18,2.32 -7.05,6.8 -7.52,11.54 -0.53,4.65 -0.23,9.33 -0.25,13.99 0,12.66 0.03,25.33 -0.05,38 0.05,4.05 0.11,8.44 2.53,11.9 3.23,4.77 9.2,6.94 14.8,6.8 14.68,-0.08 29.37,-0.05 44.06,-0.05 7.24,0.08 14.5,-0.28 21.74,0.27 -0.1,11.64 -0.14,23.29 0.01,34.93 -17.91,0.36 -35.84,0.05 -53.75,0.15 -7.19,-0.12 -14.43,0.44 -21.56,-0.64 -9.94,-1.72 -19.68,-5.72 -27.16,-12.61 -7.67,-7.07 -13.32,-16.54 -15.14,-26.87 -1.1,-5.9 -0.83,-11.92 -0.82,-17.89 0.04,-15 -0.02,-30.01 0.01,-45.01 0.02,-9.57 2.54,-19.1 7.23,-27.44 5.51,-9.65 14.55,-17.09 24.86,-21.15 z"
       id="path3028"
       inkscape:connector-curvature="0"
       style="fill:#6ac6d2" />
    <path
       d="m 1710.85,132.94 c 8.55,-2.1 17.42,-1.56 26.15,-1.61 23.58,-0.03 47.16,0.08 70.74,-0.06 0.02,12.49 0.02,24.98 0.01,37.47 -26.91,-0.22 -53.83,0.03 -80.74,-0.14 -2.95,0.03 -5.92,0.03 -8.78,0.71 -3.82,0.91 -7.13,3.85 -8.33,7.61 -1.16,3.57 -1.13,7.37 -1.18,11.09 0.11,32.63 -0.06,65.26 0.08,97.89 -12.32,0.19 -24.65,0.12 -36.97,0.04 -0.34,-7.31 -0.15,-14.63 -0.17,-21.94 -0.01,-27 0.01,-53.99 -0.02,-80.99 0.02,-11.82 3.46,-23.99 11.19,-33.12 7.12,-8.57 17.28,-14.28 28.02,-16.95 z"
       id="path3030"
       inkscape:connector-curvature="0"
       style="fill:#6ac6d2" />
  </g>
  <g
     id="#fc9200ff"
     transform="translate(-10.83549,-65.972383)">
    <path
       d="m 161.82,80.92 c 12.41,-0.22 24.84,-0.19 37.26,-0.01 0.25,47.7 0.02,95.39 0.11,143.09 -0.05,9.17 0.41,18.64 -2.8,27.4 -4.2,13.24 -14.28,24.52 -27.05,30 -4.88,2.12 -10.02,3.77 -15.34,4.24 -4.99,0.45 -10,0.34 -15,0.37 -42.72,-0.05 -85.45,0.05 -128.17,-0.05 -0.25,-12.36 -0.26,-24.73 0.01,-37.09 5.38,-0.18 10.77,-0.17 16.16,-0.13 37,0.02 74,-0.03 111,0.02 4.63,-0.05 9.32,0.27 13.89,-0.7 3.92,-0.79 7.3,-3.76 8.6,-7.55 1.05,-3.04 1.14,-6.31 1.2,-9.5 -0.07,-47.33 0.02,-94.67 -0.05,-142.01 0.01,-2.7 0.09,-5.39 0.18,-8.08 z"
       id="path3033"
       inkscape:connector-curvature="0"
       style="fill:#fc9200" />
    <path
       d="m 263.25,131.27 c 26.92,0.14 53.84,0.03 80.77,0.06 14.27,0.14 28.91,5.28 38.78,15.88 6.56,7.22 11.56,16.23 12.73,26.02 0.65,5.23 0.55,10.51 0.56,15.77 -0.05,15.34 0.04,30.68 -0.03,46.01 -0.04,13.87 -5.53,27.8 -15.57,37.46 -6.51,6.12 -14.63,10.59 -23.39,12.46 -4.96,1.06 -10.06,1.06 -15.11,1.08 -18.66,-0.02 -37.32,-0.02 -55.99,0 -5.8,-0.02 -11.66,0.19 -17.4,-0.82 -10.8,-1.96 -21.19,-7 -28.72,-15.08 -6.02,-6.58 -10.78,-14.61 -12.3,-23.49 -2.7,-14.77 0.06,-30.77 8.93,-43.07 5.27,-7.46 12.86,-13.15 21.23,-16.71 8.61,-3.58 18.1,-3.6 27.27,-3.49 19.93,-0.02 39.87,0.11 59.81,-0.08 0.24,11.87 0.11,23.75 0.08,35.63 -21.98,0.09 -43.97,0.03 -65.95,0.01 -3.84,0.03 -8,0.4 -11.06,2.98 -5.86,4.52 -7.35,13.15 -4.65,19.81 2.05,4.94 7.19,7.97 12.34,8.65 4.45,0.55 8.95,0.24 13.42,0.27 15.33,-0.01 30.66,-0.01 45.99,0.01 4.46,-0.04 8.97,0.32 13.4,-0.37 4.15,-0.66 8.02,-3.16 10.09,-6.86 2.21,-3.71 2.28,-8.16 2.29,-12.35 -0.1,-15.7 -0.04,-31.39 -0.02,-47.08 0.01,-4.48 -0.75,-9.37 -4.13,-12.61 -3.45,-3.74 -8.71,-4.81 -13.6,-4.72 -26.59,0.11 -53.18,-0.06 -79.77,0.1 0,-11.83 0,-23.65 0,-35.47 z"
       id="path3035"
       inkscape:connector-curvature="0"
       style="fill:#fc9200" />
    <path
       d="m 427.29,131.29 c 12.48,0.06 24.95,0.08 37.43,-0.01 -0.12,29.91 -0.03,59.81 -0.06,89.72 0.07,8.79 -0.16,17.58 0.15,26.37 11.96,0.5 23.62,-3.73 33.79,-9.76 12.75,-7.42 23.6,-17.72 33.03,-28.99 14.57,-17.77 26.25,-37.86 34.81,-59.18 2.39,-5.89 4.31,-11.96 5.96,-18.09 13.17,-0.06 26.34,0.03 39.52,-0.05 -7.5,23.84 -17.44,46.97 -30.11,68.52 -12.33,20.26 -27.04,39.43 -45.59,54.4 -23.47,18.97 -52.92,31.05 -83.24,31.95 -5.14,0.19 -10.62,0.59 -15.34,-1.86 -6.12,-3.04 -10.35,-9.56 -10.24,-16.46 -0.13,-45.52 0.1,-91.04 -0.11,-136.56 z"
       id="path3037"
       inkscape:connector-curvature="0"
       style="fill:#fc9200" />
    <path
       d="m 647.25,131.27 c 26.92,0.15 53.84,0.03 80.77,0.06 10.72,0.28 21.66,2.95 30.62,9.03 8.51,5.51 14.8,14.02 18.53,23.37 2.67,6.75 2.93,14.11 2.93,21.28 -0.05,16.67 0.02,33.33 -0.03,50 -0.16,16.19 -7.57,32.68 -21.11,41.97 -8.3,6.14 -18.66,9.11 -28.93,9 -22.35,0.05 -44.69,0 -67.04,0.02 -13.95,0.18 -28.2,-4.91 -38.13,-14.85 -6.71,-6.97 -11.97,-15.7 -13.43,-25.37 -2.49,-14.77 0.48,-30.68 9.5,-42.81 5.4,-7.38 13.07,-12.98 21.51,-16.41 9.71,-3.81 20.33,-3.21 30.56,-3.2 18.6,-0.05 37.21,0.11 55.82,-0.09 0.24,11.87 0.11,23.75 0.08,35.63 -21.98,0.08 -43.97,0.03 -65.95,0.01 -4.06,-0.02 -8.45,0.55 -11.55,3.43 -5.32,4.41 -6.63,12.32 -4.44,18.65 1.84,5.31 7.21,8.67 12.61,9.36 4.79,0.58 9.62,0.22 14.43,0.27 17.35,0.02 34.7,-0.07 52.05,0.06 3.38,-0.03 6.89,-0.11 10.03,-1.53 3.38,-1.46 6.1,-4.35 7.37,-7.82 1.23,-3.28 1.27,-6.83 1.31,-10.28 -0.07,-15.04 -0.06,-30.07 0,-45.1 -0.05,-3.2 -0.07,-6.46 -1.04,-9.53 -1.19,-3.77 -4.25,-6.74 -7.81,-8.32 -3.11,-1.36 -6.57,-1.42 -9.9,-1.47 -26.26,0.13 -52.51,-0.05 -78.77,0.1 0.01,-11.82 0.01,-23.64 0.01,-35.46 z"
       id="path3039"
       inkscape:connector-curvature="0"
       style="fill:#fc9200" />
  </g>
</svg>
